<svg width="40" height="40" viewBox="0 0 40 40" fill="none" xmlns="http://www.w3.org/2000/svg">
<path d="M24.7619 20C24.7619 22.6299 22.6299 24.7619 20 24.7619C17.3701 24.7619 15.2381 22.6299 15.2381 20C15.2381 17.3701 17.3701 15.2381 20 15.2381C22.6299 15.2381 24.7619 17.3701 24.7619 20Z" fill="white"/>
<path fill-rule="evenodd" clip-rule="evenodd" d="M20 40C30.0756 40 38.4111 32.5494 39.7975 22.8571H28.0837C26.907 26.1863 23.7321 28.5714 20 28.5714C16.268 28.5714 13.093 26.1863 11.9163 22.8571H0.202545C1.58891 32.5494 9.92437 40 20 40ZM11.9163 17.1429H0.202545C1.58891 7.45059 9.92437 0 20 0C30.0756 0 38.4111 7.45059 39.7975 17.1429H28.0837C26.907 13.8137 23.7321 11.4286 20 11.4286C16.268 11.4286 13.093 13.8137 11.9163 17.1429ZM24.7619 20C24.7619 22.6299 22.6299 24.7619 20 24.7619C17.3701 24.7619 15.2381 22.6299 15.2381 20C15.2381 17.3701 17.3701 15.2381 20 15.2381C22.6299 15.2381 24.7619 17.3701 24.7619 20Z" fill="white"/>
</svg>
