<svg width="30" height="30" viewBox="0 0 30 30" fill="none" xmlns="http://www.w3.org/2000/svg">
<g filter="url(#filter0_d_306_4)">
<path d="M13.9 23.9666L4.63331 14.6999C4.5222 14.5888 4.44442 14.4777 4.39998 14.3666C4.35554 14.2555 4.33331 14.1333 4.33331 13.9999C4.33331 13.8666 4.35554 13.7444 4.39998 13.6333C4.44442 13.5222 4.5222 13.4111 4.63331 13.2999L13.9333 3.99994C14.1111 3.82216 14.3333 3.73328 14.6 3.73328C14.8666 3.73328 15.1 3.83328 15.3 4.03328C15.5 4.23328 15.6 4.46661 15.6 4.73328C15.6 4.99994 15.5 5.23328 15.3 5.43328L7.73331 12.9999H24.2666C24.5555 12.9999 24.7944 13.0944 24.9833 13.2833C25.1722 13.4722 25.2666 13.7111 25.2666 13.9999C25.2666 14.2888 25.1722 14.5277 24.9833 14.7166C24.7944 14.9055 24.5555 14.9999 24.2666 14.9999H7.73331L15.3333 22.5999C15.5111 22.7777 15.6 22.9999 15.6 23.2666C15.6 23.5333 15.5 23.7666 15.3 23.9666C15.1 24.1666 14.8666 24.2666 14.6 24.2666C14.3333 24.2666 14.1 24.1666 13.9 23.9666V23.9666Z" fill="white"/>
</g>
<defs>
<filter id="filter0_d_306_4" x="0.333313" y="0.733276" width="28.9333" height="28.5333" filterUnits="userSpaceOnUse" color-interpolation-filters="sRGB">
<feFlood flood-opacity="0" result="BackgroundImageFix"/>
<feColorMatrix in="SourceAlpha" type="matrix" values="0 0 0 0 0 0 0 0 0 0 0 0 0 0 0 0 0 0 127 0" result="hardAlpha"/>
<feMorphology radius="1" operator="dilate" in="SourceAlpha" result="effect1_dropShadow_306_4"/>
<feOffset dy="1"/>
<feGaussianBlur stdDeviation="1.5"/>
<feComposite in2="hardAlpha" operator="out"/>
<feColorMatrix type="matrix" values="0 0 0 0 0 0 0 0 0 0 0 0 0 0 0 0 0 0 0.2 0"/>
<feBlend mode="normal" in2="BackgroundImageFix" result="effect1_dropShadow_306_4"/>
<feBlend mode="normal" in="SourceGraphic" in2="effect1_dropShadow_306_4" result="shape"/>
</filter>
</defs>
</svg>
